Coordinates
version=1
nRows=9
nColumns=24
inDegrees=yes

Units are S.I. units (second, meters, Newtons, ...)
Angles are in degrees.

endheader
time	pelvis_tilt	pelvis_list	pelvis_rotation	pelvis_tx	pelvis_ty	pelvis_tz	hip_flexion_r	hip_adduction_r	hip_rotation_r	knee_angle_r	ankle_angle_r	subtalar_angle_r	mtp_angle_r	hip_flexion_l	hip_adduction_l	hip_rotation_l	knee_angle_l	ankle_angle_l	subtalar_angle_l	mtp_angle_l	lumbar_extension	lumbar_bending	lumbar_rotation
      3.36000000	     -0.51742911	     -4.31752410	     -0.90740480	     -1.23963563	      0.94217827	      0.22844273	      9.59550309	     12.80248971	     10.08129945	    -20.94533364	     13.11461442	    -18.66875752	      0.00000000	     22.68513073	     -6.27837603	     -4.62962053	    -68.04140680	     11.23592151	    -14.19871058	      0.00000000	    -10.09228042	      2.81407060	     -7.52594525
      3.36500000	     -0.48196058	     -4.05586337	     -1.18193789	     -1.23280774	      0.94316810	      0.22898178	      8.81143267	     12.53248980	     10.44110421	    -20.48409394	     13.31457288	    -18.58194004	      0.00000000	     23.15663113	     -6.07384124	     -4.86119459	    -67.20386959	     11.87969525	    -13.20113551	      0.00000000	    -10.14596211	      2.46289927	     -7.32799079
      3.37000000	     -0.45970149	     -3.80038975	     -1.45702278	     -1.22600134	      0.94405168	      0.22954736	      8.05588420	     12.26126956	     10.77807483	    -20.03592034	     13.52017996	    -18.46968072	      0.00000000	     23.61694055	     -5.87749840	     -5.10221089	    -66.28572826	     12.47410884	    -12.27285967	      0.00000000	    -10.18629083	      2.10804631	     -7.14387020
      3.37500000	     -0.43769295	     -3.55704034	     -1.74417969	     -1.21920456	      0.94483678	      0.23010764	      7.31294642	     11.99462552	     11.10598479	    -19.60175121	     13.74470702	    -18.34125401	      0.00000000	     24.04835149	     -5.69695953	     -5.36404139	    -65.28843892	     13.01465004	    -11.42258908	      0.00000000	    -10.22607818	      1.77167498	     -6.94728515
      3.38000000	     -0.41515799	     -3.32705374	     -2.03999858	     -1.21241231	      0.94552021	      0.23067904	      6.58444438	     11.73660903	     11.42423684	    -19.18839258	     13.98203054	    -18.19866482	      0.00000000	     24.44983625	     -5.53202465	     -5.64050605	    -64.21220661	     13.50299071	    -10.67317491	      0.00000000	    -10.26646596	      1.44999504	     -6.74307463
      3.38500000	     -0.40004312	     -3.10891500	     -2.34242360	     -1.20562468	      0.94609588	      0.23123746	      5.88134764	     11.48366511	     11.72344988	    -18.79839402	     14.22959993	    -18.04537453	      0.00000000	     24.82926378	     -5.37966261	     -5.93072260	    -63.05634814	     13.93896147	    -10.02125037	      0.00000000	    -10.29393958	      1.14841159	     -6.54769697
      3.39000000	     -0.39432665	     -2.90553306	     -2.64551133	     -1.19883786	      0.94654487	      0.23181256	      5.20651258	     11.24344964	     12.00418842	    -18.43473381	     14.48739070	    -17.88932865	      0.00000000	     25.19284944	     -5.24466334	     -6.22903480	    -61.82882951	     14.32566876	     -9.47522041	      0.00000000	    -10.30959215	      0.85910745	     -6.36339116
      3.39500000	     -0.38378832	     -2.71672563	     -2.95250366	     -1.19205705	      0.94689926	      0.23237196	      4.54161369	     11.01395511	     12.29528183	    -18.09655306	     14.75490946	    -17.72931389	      0.00000000	     25.52237475	     -5.11855248	     -6.52636493	    -60.52668798	     14.65261568	     -9.03907755	      0.00000000	    -10.33024948	      0.58862157	     -6.16469581
      3.40000000	     -0.38120009	     -2.54267391	     -3.26274246	     -1.18528198	      0.94713647	      0.23293087	      3.90579053	     10.79805860	     12.57501163	    -17.79118919	     15.02215096	    -17.57869288	      0.00000000	     25.83172648	     -5.00965822	     -6.83321634	    -59.15250192	     14.94078776	     -8.69468502	      0.00000000	    -10.34105059	      0.33762074	     -5.98201809
